# Blender v2.74 (sub 0) OBJ File: 'corners.blend'
# www.blender.org
mtllib corner_inner.mtl
o Lowpoly_Cube.002
v -0.146787 0.386615 0.057822
v -0.146787 0.234222 0.057822
v -0.192647 -0.296041 0.057822
v -0.238764 -0.286990 0.041031
v -0.238764 -0.230690 0.041031
v -0.238764 -0.194776 0.041031
v -0.191099 -0.179737 0.041031
v -0.192201 -0.291242 0.041031
v -0.238764 -0.286990 0.057822
v -0.238764 -0.230690 0.057822
v -0.286054 -0.178445 0.057822
v -0.192647 -0.348517 0.057822
v -0.156829 -1.167601 0.039913
v -0.156829 -0.369046 0.039913
v -0.192648 0.163116 0.057822
v -0.192648 -0.148975 0.057822
v -0.192647 -1.195256 0.057822
v 0.057822 0.386615 -0.146787
v 0.057822 0.234222 -0.146787
v 0.057307 0.386615 0.057307
v 0.057307 0.234222 0.057307
v 0.057822 -0.296041 -0.192647
v 0.057307 -0.296041 0.057307
v 0.041031 -0.286990 -0.238764
v 0.041031 -0.230690 -0.238764
v 0.041031 -0.194776 -0.238764
v 0.041031 -0.179737 -0.191099
v 0.041031 -0.291242 -0.192201
v 0.057822 -0.286990 -0.238764
v 0.057822 -0.230690 -0.238764
v 0.057822 -0.178445 -0.286054
v 0.057307 -0.148975 0.057307
v 0.057822 -0.348517 -0.192647
v 0.039913 -1.167601 -0.156829
v 0.039913 -0.369046 -0.156829
v 0.057822 0.163116 -0.192648
v 0.057822 -0.148975 -0.192648
v 0.054633 -1.615045 0.054633
v 0.057822 -1.195256 -0.192647
v 0.054052 -1.335565 0.054052
v 0.040516 -0.291242 0.040516
v 0.057307 -0.348518 0.057307
v 0.057307 0.163116 0.057307
v 0.040516 -0.179737 0.040516
v 0.039398 -1.272112 0.039398
v 0.039398 -0.369046 0.039398
vt 0.555267 0.100144
vt 0.555267 0.018947
vt 0.622420 0.012814
vt 0.624010 0.173629
vt 0.555266 0.151940
vt 0.033294 0.969038
vt 0.000112 0.964200
vt 0.001849 0.952284
vt 0.035268 0.956666
vt 0.487063 0.175492
vt 0.621776 0.217995
vt 0.042219 0.919679
vt 0.048646 0.312448
vt 0.077154 0.332584
vt 0.071093 0.905261
vt 0.218394 0.952789
vt 0.209410 0.931203
vt 0.197315 0.999888
vt 0.211443 0.989776
vt 0.205279 0.000112
vt 0.218395 0.200114
vt 0.212033 0.247561
vt 0.958050 0.173629
vt 0.982267 0.217995
vt 0.982267 0.668100
vt 0.621776 0.668101
vt 0.255941 0.991463
vt 0.255941 0.124256
vt 0.469038 0.010760
vt 0.469039 0.991463
vt 0.687918 0.770651
vt 0.982267 0.770651
vt 0.958050 0.012814
vt 0.687918 0.990437
vt 0.982267 0.990436
vn -0.000000 0.000000 1.000000
vn 0.140600 0.979800 0.141900
vn 1.000000 0.000000 0.000000
vn 0.619700 0.332400 0.711000
vn 0.147700 -0.468100 0.871200
vn 0.447200 0.000000 0.894400
vn 0.001700 -0.657000 0.753900
vn 0.000600 0.961600 0.274600
vn 0.002100 0.000000 1.000000
vn 0.016500 0.002100 0.999900
vn 0.172500 0.295700 0.939600
vn 0.001900 -0.479500 0.877600
vn 0.002600 0.000000 1.000000
vn 0.002300 -0.000700 1.000000
vn 0.002200 -0.000000 1.000000
vn 0.002500 -0.000000 1.000000
vn 0.141900 0.979800 0.140600
vn 0.711000 0.332400 0.619700
vn 0.871200 -0.468100 0.147700
vn 0.894400 0.000000 0.447200
vn 0.753900 -0.657000 0.001700
vn 0.274600 0.961600 0.000600
vn 1.000000 -0.000000 0.002100
vn 0.999900 0.002100 0.016500
vn 0.939600 0.295700 0.172500
vn 0.877600 -0.479500 0.001900
vn 1.000000 0.000000 0.002600
vn 1.000000 -0.000700 0.002300
vn 1.000000 -0.000000 0.002200
vn 1.000000 0.000000 0.002500
usemtl Material
s off
f 5/1/1 4/2/1 8/3/1 7/4/1
f 5/1/1 7/4/1 6/5/1
f 8/6/2 4/7/2 9/8/2 3/9/2
f 4/2/3 5/1/3 10/1/3 9/2/3
f 5/1/4 6/5/4 11/10/4 10/1/4
f 6/5/5 7/4/5 16/11/5 11/10/5
f 12/12/6 17/13/6 13/14/6 14/15/6
f 42/16/7 12/12/7 14/15/7 46/17/7
f 41/18/8 8/6/8 3/9/8 23/19/8
f 23/19/9 3/9/9 12/12/9 42/16/9
f 38/20/10 40/21/10 17/13/10
f 17/13/11 40/21/11 45/22/11 13/14/11
f 7/4/12 44/23/12 32/24/12 16/11/12
f 43/25/9 15/26/9 16/11/9 32/24/9
f 14/27/13 13/28/13 45/29/13 46/30/13
f 2/31/14 15/26/14 43/25/14 21/32/14
f 8/3/15 41/33/15 44/23/15 7/4/15
f 1/34/16 2/31/16 21/32/16 20/35/16
f 25/1/3 27/4/3 28/3/3 24/2/3
f 25/1/3 26/5/3 27/4/3
f 28/6/17 22/9/17 29/8/17 24/7/17
f 24/2/1 29/2/1 30/1/1 25/1/1
f 25/1/18 30/1/18 31/10/18 26/5/18
f 26/5/19 31/10/19 37/11/19 27/4/19
f 33/12/20 35/15/20 34/14/20 39/13/20
f 42/16/21 46/17/21 35/15/21 33/12/21
f 41/18/22 23/19/22 22/9/22 28/6/22
f 23/19/23 42/16/23 33/12/23 22/9/23
f 38/20/24 39/13/24 40/21/24
f 39/13/25 34/14/25 45/22/25 40/21/25
f 27/4/26 37/11/26 32/24/26 44/23/26
f 43/25/23 32/24/23 37/11/23 36/26/23
f 35/27/27 46/30/27 45/29/27 34/28/27
f 19/31/28 21/32/28 43/25/28 36/26/28
f 28/3/29 27/4/29 44/23/29 41/33/29
f 18/34/30 20/35/30 21/32/30 19/31/30
