# Blender v2.74 (sub 0) OBJ File: 'corners.blend'
# www.blender.org
mtllib door.mtl
o Door_Lowpoly_Lowpoly_Plane.000
v -0.050018 0.780711 -0.056293
v -0.050018 1.119856 -0.056293
v -0.050018 0.780711 -0.547742
v -0.050018 1.119856 -0.547742
v 0.042110 0.802624 -0.088047
v 0.042110 1.097943 -0.088047
v 0.042110 0.802625 -0.515988
v 0.042110 1.097943 -0.515988
v 0.017995 2.000000 -0.814623
v 0.119015 1.999189 -0.747023
v 0.017995 2.000000 -0.982103
v 0.017995 1.847607 -0.814623
v 0.017995 1.847607 -0.982103
v 0.119015 1.999189 -0.507353
v -0.121273 1.337950 -0.982103
v -0.121273 1.434940 -0.982103
v -0.121274 1.435535 -0.777931
v -0.121274 1.337224 -0.777931
v -0.027866 0.418129 -0.982103
v -0.005486 0.252731 -0.043513
v 0.221573 0.000000 -0.173000
v 0.221573 0.000000 -0.982103
v 0.002738 0.252731 -0.030936
v 0.082079 0.044571 -0.101938
v 0.119015 1.846796 -0.747023
v 0.010697 1.775690 -0.030936
v -0.027866 1.464410 -0.804842
v -0.027866 1.464410 -0.982103
v -0.027866 1.317344 -0.982103
v -0.125160 1.488831 -0.793379
v -0.125160 1.287646 -0.793379
v -0.073982 1.287646 -0.818103
v -0.073982 1.488831 -0.818103
v -0.073982 1.287646 -0.872947
v -0.073982 1.488831 -0.872947
v -0.125160 1.287646 -0.897671
v -0.125160 1.488831 -0.897671
v -0.125160 1.450081 -0.920835
v -0.125160 1.326395 -0.920835
v -0.073982 1.326395 -0.945559
v -0.073982 1.382695 -0.945559
v -0.073982 1.326395 -0.982103
v -0.073982 1.382695 -0.982103
v -0.125160 1.450081 -0.982103
v -0.005486 1.847607 -0.453215
v -0.005486 0.046202 -0.436291
v 0.071445 0.000000 -0.507353
v -0.005486 0.418129 -0.439419
v 0.074720 1.846796 -0.507353
v 0.073892 0.380316 -0.507353
v -0.021955 1.776501 -0.814623
v -0.096607 0.000000 -0.818085
v 0.071445 0.000000 -0.747023
v 0.073892 0.380316 -0.747023
v 0.084685 1.846796 -0.747023
v -0.096607 0.418129 -0.814957
v -0.005486 1.847607 -0.140293
v -0.027866 1.776501 -0.982103
v 0.024659 1.846796 -0.123233
v -0.005486 1.316618 -0.448041
v -0.027866 1.316618 -0.799035
v 0.080637 1.301930 -0.747023
v 0.080637 1.301930 -0.507353
v 0.081805 1.453725 -0.747023
v 0.081805 1.453725 -0.507353
v -0.005486 1.775690 -0.449533
v 0.007791 1.316618 -0.030936
v 0.119015 1.846796 -0.507353
v -0.005486 1.775690 -0.030936
v -0.005486 1.316618 -0.035528
v -0.005486 0.046202 -0.173000
v 0.017995 2.000000 0.850418
v 0.119015 1.999189 0.782818
v 0.017995 2.000000 1.017897
v 0.017995 1.847607 0.850418
v 0.017995 1.847607 1.017897
v 0.007791 1.316618 0.017897
v 0.119015 1.999189 0.543148
v -0.121273 1.337950 1.017897
v -0.121273 1.434940 1.017897
v -0.121274 1.435535 0.813725
v -0.121274 1.337224 0.813725
v -0.027866 0.418129 1.017897
v -0.005486 0.252731 0.079307
v 0.221573 0.000000 0.208794
v 0.221573 -0.000000 1.017897
v 0.002738 0.252731 0.066730
v 0.082079 0.044571 0.137732
v 0.119015 1.846796 0.782818
v 0.010697 1.775690 0.066731
v -0.027866 1.464410 0.840637
v -0.027866 1.464410 1.017897
v -0.027866 1.317344 1.017897
v -0.125160 1.488831 0.829173
v -0.125160 1.287646 0.829173
v -0.073982 1.287646 0.853897
v -0.073982 1.488831 0.853897
v -0.073982 1.287646 0.908741
v -0.073982 1.488831 0.908741
v -0.125160 1.287646 0.933465
v -0.125160 1.488831 0.933465
v -0.125160 1.450081 0.956629
v -0.125160 1.326395 0.956629
v -0.073982 1.326395 0.981353
v -0.073982 1.382695 0.981353
v -0.073982 1.326395 1.017897
v -0.073982 1.382695 1.017897
v -0.125160 1.450081 1.017897
v 0.221573 0.000000 0.017897
v 0.119015 1.846796 0.017897
v 0.119015 1.999189 0.017898
v 0.017995 2.000000 0.017898
v -0.005486 1.847607 0.489010
v -0.005486 0.046202 0.472085
v 0.071445 -0.000000 0.543147
v -0.005486 0.418129 0.475213
v 0.074720 1.846796 0.543148
v 0.073892 0.380316 0.543147
v -0.021955 1.776501 0.850418
v -0.096607 -0.000000 0.853879
v 0.071445 -0.000000 0.782817
v 0.073892 0.380316 0.782817
v 0.084685 1.846796 0.782818
v -0.096607 0.418129 0.850752
v 0.024659 1.846796 0.017897
v 0.082079 0.044571 0.017897
v 0.010697 1.775690 0.017897
v 0.002738 0.252731 0.017897
v -0.005486 1.847607 0.176088
v -0.027866 1.776501 1.017897
v 0.024659 1.846796 0.159028
v -0.005486 1.316618 0.483836
v -0.027866 1.316618 0.834829
v 0.080637 1.301930 0.782818
v 0.080637 1.301930 0.543148
v 0.081805 1.453725 0.782818
v 0.081805 1.453725 0.543148
v -0.005486 1.775690 0.485328
v 0.007791 1.316618 0.066730
v 0.119015 1.846796 0.543148
v -0.005486 1.775690 0.066731
v -0.005486 1.316618 0.071323
v -0.005486 0.046202 0.208794
vt 0.775222 0.559249
vt 0.759715 0.548548
vt 0.759715 0.404335
vt 0.775222 0.393634
vt 0.550738 0.548548
vt 0.550738 0.404335
vt 0.535232 0.559249
vt 0.535232 0.393634
vt 0.897936 0.655334
vt 0.872537 0.648161
vt 0.872537 0.198109
vt 0.905711 0.216574
vt 0.987333 0.989050
vt 0.905548 0.989050
vt 0.905548 0.914632
vt 0.987333 0.914632
vt 0.872537 0.914236
vt 0.987333 0.665751
vt 0.987333 0.713114
vt 0.887630 0.713405
vt 0.887630 0.665396
vt 0.755498 0.648161
vt 0.755498 0.198109
vt 0.528991 0.135805
vt 0.592223 0.034951
vt 0.720797 0.034951
vt 0.722324 0.216574
vt 0.905548 0.879909
vt 0.987333 0.879909
vt 0.872537 0.988654
vt 0.900772 0.727505
vt 0.987333 0.727505
vt 0.522849 0.135805
vt 0.499003 0.135805
vt 0.499003 0.034154
vt 0.557522 0.034154
vt 0.499003 0.989050
vt 0.499003 0.988654
vt 0.755498 0.988654
vt 0.499003 0.012389
vt 0.592224 0.012389
vt 0.755498 0.914236
vt 0.729061 0.914632
vt 0.567921 0.914236
vt 0.576252 0.914632
vt 0.987333 0.012389
vt 0.907239 0.012389
vt 0.872537 0.012389
vt 0.987333 0.216574
vt 0.755499 0.012389
vt 0.525092 0.655334
vt 0.522849 0.655334
vt 0.726534 0.655334
vt 0.499003 0.655334
vt 0.499003 0.914236
vt 0.499003 0.879513
vt 0.522849 0.879513
vt 0.727263 0.879513
vt 0.755498 0.722287
vt 0.872537 0.722287
vt 0.987333 0.655688
vt 0.100070 0.655334
vt 0.092294 0.216574
vt 0.125469 0.198109
vt 0.125469 0.648161
vt 0.010672 0.989050
vt 0.010672 0.914632
vt 0.092457 0.914632
vt 0.092457 0.989050
vt 0.125469 0.914236
vt 0.010672 0.665751
vt 0.110375 0.665396
vt 0.110375 0.713405
vt 0.010672 0.713114
vt 0.242507 0.198109
vt 0.242507 0.648161
vt 0.469014 0.135805
vt 0.275681 0.216574
vt 0.277209 0.034951
vt 0.405782 0.034951
vt 0.010672 0.879909
vt 0.092457 0.879909
vt 0.125469 0.988654
vt 0.097233 0.727505
vt 0.010672 0.727505
vt 0.475156 0.135805
vt 0.440484 0.034154
vt 0.242507 0.988654
vt 0.405782 0.012389
vt 0.242507 0.914236
vt 0.268944 0.914632
vt 0.421753 0.914632
vt 0.430084 0.914236
vt 0.010672 0.012389
vt 0.125469 0.012389
vt 0.090767 0.012389
vt 0.010672 0.216574
vt 0.242507 0.012389
vt 0.472913 0.655334
vt 0.475156 0.655334
vt 0.271471 0.655334
vt 0.475156 0.879513
vt 0.270742 0.879513
vt 0.242507 0.722287
vt 0.125469 0.722287
vt 0.010672 0.655688
vt 0.895173 0.739431
vt 0.895173 0.641186
vt 0.907247 0.641186
vt 0.907247 0.739431
vt 0.934029 0.641186
vt 0.934029 0.739431
vt 0.946103 0.641186
vt 0.946103 0.739431
vt 0.957414 0.720508
vt 0.957414 0.660108
vt 0.969488 0.660108
vt 0.969488 0.687601
vt 0.987333 0.660108
vt 0.987333 0.687601
vt 0.987333 0.720508
vt 0.102832 0.739431
vt 0.090758 0.739431
vt 0.090758 0.641186
vt 0.102832 0.641186
vt 0.063976 0.739431
vt 0.063976 0.641186
vt 0.051903 0.739431
vt 0.051903 0.641186
vt 0.040591 0.720508
vt 0.028517 0.687601
vt 0.028517 0.660108
vt 0.040591 0.660108
vt 0.010672 0.687601
vt 0.010672 0.660108
vt 0.010672 0.720508
vn 0.382300 0.636800 -0.669600
vn 0.719500 0.511300 -0.470000
vn 0.719500 -0.511300 -0.470000
vn 0.382300 -0.636800 -0.669600
vn 0.719500 0.511300 0.470000
vn 0.719500 -0.511300 0.470000
vn 0.382300 0.636800 0.669600
vn 0.382300 -0.636800 0.669600
vn 0.567600 0.310400 -0.762600
vn 0.842300 -0.012300 -0.538800
vn 0.832400 -0.005500 -0.554100
vn 0.937600 0.056000 -0.343300
vn 1.000000 0.000000 0.000000
vn 0.832600 0.333600 -0.442000
vn 0.851600 -0.290300 -0.436400
vn 0.963400 -0.268100 -0.007800
vn 0.695000 -0.615200 -0.372200
vn 0.492600 -0.832500 -0.253700
vn 0.780400 0.625300 0.002300
vn 0.806200 -0.591600 0.000900
vn 0.560200 -0.481800 -0.673900
vn 0.551100 0.498300 -0.669300
vn 0.891000 -0.003500 0.453900
vn 0.906600 -0.003200 0.422000
vn 0.867300 0.162500 -0.470500
vn 0.760600 0.602200 -0.242700
vn 0.811900 0.497000 0.306200
vn 0.903400 0.000700 0.428900
vn 0.868400 -0.218700 -0.445000
vn 0.962400 -0.271200 -0.016700
vn 0.698300 0.611900 -0.371300
vn 0.595600 -0.338800 -0.728400
vn 0.802700 -0.596300 -0.009700
vn 0.894300 0.227600 -0.385200
vn 0.983900 0.178700 0.000000
vn 0.687400 0.726200 0.000000
vn 0.513300 0.824100 -0.239600
vn 0.008000 1.000000 0.000000
vn 0.709900 0.704300 0.000000
vn 0.304400 0.952600 0.000000
vn 0.238900 0.969300 -0.057700
vn 0.707100 -0.707100 0.000000
vn 0.692600 -0.616700 0.374100
vn 0.502400 -0.821100 0.271000
vn 0.165400 -0.970700 -0.174300
vn 0.667100 -0.728800 -0.154400
vn 0.415000 0.769900 0.484900
vn 0.798500 0.586100 -0.137400
vn 0.430700 0.854800 -0.289500
vn 0.851500 0.086200 0.517100
vn 0.557500 0.814400 0.161100
vn 0.843700 0.001800 -0.536700
vn 0.843100 -0.001600 -0.537700
vn 0.889500 0.000700 0.456900
vn 1.000000 -0.005500 0.000000
vn 0.635300 -0.772200 -0.000000
vn 0.995000 -0.099900 0.000000
vn 0.827400 -0.334100 -0.451400
vn 0.890100 0.007700 0.455700
vn 0.882300 0.000600 0.470800
vn 0.861600 -0.011600 -0.507400
vn 0.780000 0.612600 0.127700
vn 0.700300 -0.328600 -0.633700
vn 0.567600 0.310400 0.762600
vn 0.937600 0.056000 0.343300
vn 0.832400 -0.005500 0.554100
vn 0.842300 -0.012300 0.538800
vn 0.963400 -0.268100 0.007800
vn 0.851600 -0.290300 0.436400
vn 0.832600 0.333600 0.442000
vn 0.695000 -0.615200 0.372200
vn 0.492600 -0.832500 0.253700
vn 0.780400 0.625300 -0.002300
vn 0.551100 0.498300 0.669300
vn 0.560200 -0.481800 0.673900
vn 0.806200 -0.591600 -0.000900
vn 0.906600 -0.003200 -0.422000
vn 0.891000 -0.003500 -0.453900
vn 0.867300 0.162500 0.470500
vn 0.903400 0.000700 -0.428900
vn 0.811900 0.497000 -0.306200
vn 0.760600 0.602200 0.242700
vn 0.962400 -0.271200 0.016700
vn 0.868400 -0.218700 0.445000
vn 0.698300 0.611900 0.371300
vn 0.595600 -0.338800 0.728400
vn 0.802700 -0.596300 0.009700
vn 0.894300 0.227600 0.385200
vn 0.513300 0.824100 0.239600
vn 0.238900 0.969300 0.057700
vn 0.692600 -0.616700 -0.374100
vn 0.667100 -0.728800 0.154400
vn 0.165400 -0.970700 0.174300
vn 0.502400 -0.821100 -0.271000
vn 0.415000 0.769900 -0.484900
vn 0.430700 0.854800 0.289500
vn 0.798500 0.586100 0.137400
vn 0.851500 0.086200 -0.517100
vn 0.557500 0.814400 -0.161100
vn 0.843700 0.001800 0.536700
vn 0.843100 -0.001600 0.537700
vn 0.889500 0.000700 -0.456900
vn 0.827400 -0.334100 0.451400
vn 0.890100 0.007700 -0.455700
vn 0.882300 0.000600 -0.470800
vn 0.861600 -0.011600 0.507400
vn 0.780000 0.612600 -0.127700
vn 0.700300 -0.328600 0.633700
vn 0.435000 0.000000 0.900400
vn 0.847100 0.000000 0.531500
vn 0.847100 0.000000 -0.531500
vn 0.435000 0.000000 -0.900400
vn 0.798600 0.467500 0.379000
vn 0.857300 0.234000 0.458500
vn 0.947700 0.319100 0.000000
vn 0.796400 0.604800 0.000000
vn 0.798600 0.467500 -0.379000
vn 0.857300 0.234000 -0.458500
usemtl Material.027
s 1
f 4/1/1 8/2/2 7/3/3 3/4/4
f 8/2/2 6/5/5 5/6/6 7/3/3
f 6/5/5 2/7/7 1/8/8 5/6/6
f 1/8/8 3/4/4 7/3/3 5/6/6
f 6/5/5 8/2/2 4/1/1 2/7/7
s 2
f 61/9/9 62/10/10 54/11/11 56/12/12
f 11/13/13 9/14/14 12/15/15 13/16/16
f 25/17/17 55/17/18 12/15/15
f 15/18/19 16/19/20 17/20/21 18/21/22
f 62/10/10 63/22/23 50/23/24 54/11/11
f 20/24/25 71/25/26 46/26/27 48/27/28
f 13/16/16 12/15/15 51/28/29 58/29/30
f 9/14/14 10/30/31 25/17/17 12/15/15
f 55/17/18 51/28/29 12/15/15
f 27/31/32 17/20/21 16/19/20 28/32/33
f 23/33/34 128/34/35 126/35/36 24/36/37
f 9/14/14 112/37/38 111/38/39 14/39/39 10/30/31
f 24/36/37 126/35/36 109/40/40 21/41/41
f 10/30/31 14/39/39 68/42/42 25/17/17
f 45/43/43 49/42/44 59/44/45 57/45/46
f 22/46/47 52/47/48 53/48/49
f 52/47/48 22/46/47 19/49/50 56/12/12
f 22/46/47 53/48/49 47/50/51 21/41/41
f 48/27/28 46/26/27 47/50/51 50/23/24
f 56/12/12 54/11/11 53/48/49 52/47/48
f 54/11/11 50/23/24 47/50/51 53/48/49
f 70/51/52 67/52/53 23/33/34 20/24/25
f 60/53/54 48/27/28 50/23/24 63/22/23
f 77/54/55 128/34/35 23/33/34 67/52/53
f 125/55/56 127/56/57 26/57/58 59/44/45
f 68/42/42 110/55/42 125/55/56 59/44/45 49/42/44
f 14/39/39 111/38/39 110/55/42 68/42/42
f 66/58/59 60/53/54 63/22/23 65/59/60
f 64/60/61 65/59/60 63/22/23 62/10/10
f 29/61/62 15/18/19 18/21/22 61/9/9
f 29/61/62 61/9/9 56/12/12 19/49/50
f 55/17/18 49/42/44 65/59/60 64/60/61
f 45/43/43 66/58/59 65/59/60 49/42/44
f 51/28/29 55/17/18 64/60/61 27/31/32
f 18/21/22 17/20/21 27/31/32 61/9/9
f 61/9/9 27/31/32 64/60/61 62/10/10
f 49/42/44 55/17/18 25/17/17 68/42/42
f 127/56/57 77/54/55 67/52/53 26/57/58
f 69/57/63 26/57/58 67/52/53 70/51/52
f 70/51/52 60/53/54 66/58/59 69/57/63
f 60/53/54 70/51/52 20/24/25 48/27/28
f 20/24/25 23/33/34 24/36/37 71/25/26
f 24/36/37 21/41/41 71/25/26
f 47/50/51 46/26/27 71/25/26 21/41/41
f 26/57/58 69/57/63 57/45/46 59/44/45
f 45/43/43 57/45/46 69/57/63 66/58/59
f 58/29/30 51/28/29 27/31/32 28/32/33
f 133/62/64 124/63/65 122/64/66 134/65/67
f 74/66/13 76/67/68 75/68/69 72/69/70
f 89/70/71 75/68/69 123/70/72
f 79/71/73 82/72/74 81/73/75 80/74/76
f 134/65/67 122/64/66 118/75/77 135/76/78
f 84/77/79 116/78/80 114/79/81 143/80/82
f 76/67/68 130/81/83 119/82/84 75/68/69
f 72/69/70 75/68/69 89/70/71 73/83/85
f 123/70/72 75/68/69 119/82/84
f 91/84/86 92/85/87 80/74/76 81/73/75
f 87/86/88 88/87/89 126/35/36 128/34/35
f 72/69/70 73/83/85 78/88/39 111/38/39 112/37/38
f 88/87/89 85/89/90 109/40/40 126/35/36
f 73/83/85 89/70/71 140/90/42 78/88/39
f 113/91/91 129/92/92 131/93/93 117/90/94
f 86/94/95 121/95/96 120/96/97
f 120/96/97 124/63/65 83/97/98 86/94/95
f 86/94/95 85/89/90 115/98/99 121/95/96
f 116/78/80 118/75/77 115/98/99 114/79/81
f 124/63/65 120/96/97 121/95/96 122/64/66
f 122/64/66 121/95/96 115/98/99 118/75/77
f 142/99/100 84/77/79 87/86/88 139/100/101
f 132/101/102 135/76/78 118/75/77 116/78/80
f 77/54/55 139/100/101 87/86/88 128/34/35
f 125/55/56 131/93/93 90/102/103 127/56/57
f 140/90/42 117/90/94 131/93/93 125/55/56 110/55/42
f 78/88/39 140/90/42 110/55/42 111/38/39
f 138/103/104 137/104/105 135/76/78 132/101/102
f 136/105/106 134/65/67 135/76/78 137/104/105
f 93/106/107 133/62/64 82/72/74 79/71/73
f 93/106/107 83/97/98 124/63/65 133/62/64
f 123/70/72 136/105/106 137/104/105 117/90/94
f 113/91/91 117/90/94 137/104/105 138/103/104
f 119/82/84 91/84/86 136/105/106 123/70/72
f 82/72/74 133/62/64 91/84/86 81/73/75
f 133/62/64 134/65/67 136/105/106 91/84/86
f 117/90/94 140/90/42 89/70/71 123/70/72
f 127/56/57 90/102/103 139/100/101 77/54/55
f 141/102/108 142/99/100 139/100/101 90/102/103
f 142/99/100 141/102/108 138/103/104 132/101/102
f 132/101/102 116/78/80 84/77/79 142/99/100
f 84/77/79 143/80/82 88/87/89 87/86/88
f 88/87/89 143/80/82 85/89/90
f 115/98/99 85/89/90 143/80/82 114/79/81
f 90/102/103 131/93/93 129/92/92 141/102/108
f 113/91/91 138/103/104 141/102/108 129/92/92
f 130/81/83 92/85/87 91/84/86 119/82/84
s 3
f 30/107/109 31/108/109 32/109/110 33/110/110
f 33/110/110 32/109/110 34/111/111 35/112/111
f 35/112/111 34/111/111 36/113/112 37/114/112
s 4
f 38/115/113 39/116/109 40/117/110 41/118/114
f 41/118/114 40/117/110 42/119/13 43/120/115
f 44/121/116 38/115/113 41/118/114 43/120/115
s 5
f 94/122/112 97/123/111 96/124/111 95/125/112
f 97/123/111 99/126/110 98/127/110 96/124/111
f 99/126/110 101/128/109 100/129/109 98/127/110
s 6
f 102/130/117 105/131/118 104/132/111 103/133/112
f 105/131/118 107/134/115 106/135/13 104/132/111
f 108/136/116 107/134/115 105/131/118 102/130/117
