# Blender v2.74 (sub 0) OBJ File: 'corners.blend'
# www.blender.org
mtllib tile_floor_small.mtl
o Tile_Wall_Small_Lowpoly_Plane.001
v -0.203579 2.000000 0.000000
v 0.000000 0.000000 0.000000
v -0.203579 2.000000 -0.500000
v 0.000000 0.000000 -0.500000
v -0.249439 0.418129 0.000000
v -0.249439 0.418129 -0.500000
v -0.203579 1.847607 -0.500000
v -0.203579 1.847607 0.000000
v -0.249440 1.776501 0.000000
v -0.249440 1.776501 -0.500000
v -0.295556 1.326395 -0.500000
v -0.249440 1.464410 -0.500000
v -0.249440 1.317344 0.000000
v -0.249440 1.317344 -0.500000
v -0.295556 1.326395 0.000000
v -0.295556 1.382695 0.000000
v -0.342846 1.434940 0.000000
v -0.249440 1.464410 0.000000
v -0.295556 1.382695 -0.500000
v -0.342846 1.434940 -0.500000
vt 0.000103 0.339774
vt 0.000102 0.000103
vt 0.348927 0.000102
vt 0.348927 0.339774
vt 0.000103 0.967111
vt 0.348928 0.967111
vt 0.384771 0.972032
vt 0.384771 0.792938
vt 0.972378 0.792937
vt 0.972378 0.972032
vt 0.384771 0.693499
vt 0.972378 0.693499
vt 0.384770 0.128804
vt 0.972378 0.128803
vt 0.972378 0.211619
vt 0.384771 0.211620
vt 0.384771 0.326726
vt 0.972378 0.326726
vt 0.384770 0.062639
vt 0.972378 0.062639
vt 0.000102 0.999897
vt 0.348928 0.999897
vn 0.964000 0.265700 0.000000
vn 0.858800 0.512300 0.000000
vn 0.772200 0.635400 0.000000
vn 1.000000 0.000000 0.000000
vn 0.959300 -0.282500 0.000000
vn 0.933100 0.359600 0.000000
vn 0.965100 -0.261700 0.000000
vn 0.806500 -0.591200 0.000000
usemtl Material.021
s 1
f 5/1/1 2/2/2 4/3/2 6/4/1
f 13/5/3 5/1/1 6/4/1 14/6/3
f 1/7/4 8/8/5 7/9/5 3/10/4
f 8/8/5 9/11/5 10/12/5 7/9/5
f 16/13/6 19/14/6 20/15/7 17/16/7
f 9/11/5 18/17/8 12/18/8 10/12/5
f 15/19/3 11/20/3 19/14/6 16/13/6
f 15/21/3 13/5/3 14/6/3 11/22/3
f 17/16/7 20/15/7 12/18/8 18/17/8
