# Blender v2.74 (sub 0) OBJ File: 'Tile_Wall_1.blend'
# www.blender.org
mtllib Tile_Wall_2.mtl
o Lowpoly_Plane.002
v -1.203579 2.000000 1.000000
v -1.000000 0.000000 1.000000
v -1.249439 0.418129 1.000000
v -1.249440 1.776501 1.000000
v -1.203579 1.847607 1.000000
v -1.203579 2.000000 0.173973
v -1.000000 0.000000 0.190897
v -1.249439 0.418129 0.190897
v -1.249440 1.776501 0.173973
v -1.203579 1.847607 0.173973
v -1.102558 1.999189 0.119835
v -1.102558 1.846796 0.119835
v -1.140459 1.775690 0.119835
v -1.148418 0.371927 0.119835
v -1.000000 0.185395 0.119835
v -1.342847 1.435535 0.698267
v -1.342847 1.337224 0.795828
v -1.342846 1.337950 1.000000
v -1.342846 1.434940 1.000000
v -1.249440 1.317344 1.000000
v -1.249440 1.464410 1.000000
v -1.249439 0.979404 0.183891
v -1.249439 0.823436 0.186137
v -1.249440 1.465006 0.685656
v -1.249440 1.316618 0.816932
v -1.249440 0.825300 0.615100
v -1.249440 0.980586 0.503948
v -1.342847 0.864284 0.612219
v -1.342847 0.951115 0.517871
v -1.342846 0.862420 0.186137
v -1.342846 0.949933 0.183891
v -1.346733 1.287646 0.915568
v -1.346733 1.488831 0.915568
v -1.346733 1.287646 0.811276
v -1.346733 1.488831 0.811276
v -1.295556 1.287646 0.890844
v -1.295556 1.488831 0.890844
v -1.295556 1.287646 0.836000
v -1.295556 1.488831 0.836000
v -1.362104 0.753691 0.393314
v -1.362104 1.045511 0.393314
v -1.362104 0.753691 0.242038
v -1.362104 1.045511 0.242038
v -1.287871 0.753691 0.357451
v -1.287871 1.045511 0.357451
v -1.287871 0.753691 0.277901
v -1.287871 1.045511 0.277901
v -1.339383 0.820679 0.506631
v -1.339383 0.978523 0.506631
v -1.339383 0.820679 0.424807
v -1.339383 0.978523 0.424807
v -1.299231 0.820679 0.487233
v -1.299231 0.978523 0.487233
v -1.299231 0.820679 0.444205
v -1.299231 0.978523 0.444205
v -1.349854 0.780170 0.576027
v -1.349854 1.138135 0.576027
v -1.349854 0.780170 0.530405
v -1.349854 1.138135 0.530405
v -1.327467 0.780170 0.565211
v -1.327467 1.138135 0.565211
v -1.327467 0.780170 0.541220
v -1.327467 1.138135 0.541220
v -1.349854 0.669685 0.633310
v -1.349854 1.462195 0.633310
v -1.349854 0.669685 0.587688
v -1.349854 1.462195 0.587688
v -1.327467 0.669685 0.622495
v -1.327467 1.462195 0.622495
v -1.327467 0.669685 0.598504
v -1.327467 1.462195 0.598504
v -1.349854 0.786373 0.687765
v -1.349854 1.578883 0.687765
v -1.349854 0.786373 0.642142
v -1.349854 1.578883 0.642142
v -1.327467 0.786373 0.676949
v -1.327467 1.578883 0.676949
v -1.327467 0.786373 0.652958
v -1.327467 1.578883 0.652958
v -1.372540 0.948793 0.795068
v -1.372540 1.528201 0.795068
v -1.372540 0.948793 0.660721
v -1.372540 1.528201 0.660721
v -1.306614 0.948793 0.763219
v -1.306614 1.528201 0.763219
v -1.306614 0.948793 0.692571
v -1.306614 1.528201 0.692571
v -1.346733 1.326395 0.938732
v -1.346733 1.450081 0.938732
v -1.295556 1.326395 1.000000
v -1.295556 1.382695 1.000000
v -1.295556 1.326395 0.963456
v -1.295556 1.382695 0.963456
v -1.346733 1.450081 1.000000
v -1.203579 2.000000 -1.000000
v -1.000000 0.000000 -1.000000
v -1.249439 0.418129 -1.000000
v -1.249440 1.776501 -1.000000
v -1.203579 1.847607 -1.000000
v -1.203579 2.000000 -0.173973
v -1.000000 0.000000 -0.190897
v -1.249439 0.418129 -0.190897
v -1.249440 1.776501 -0.173973
v -1.203579 1.847607 -0.173973
v -1.102558 1.999189 -0.119835
v -1.102558 1.846796 -0.119835
v -1.140459 1.775690 -0.119835
v -1.148418 0.371927 -0.119835
v -1.000000 0.185395 -0.119835
v -1.342847 1.435535 -0.698267
v -1.342847 1.337224 -0.795828
v -1.342846 1.337950 -1.000000
v -1.342846 1.434940 -1.000000
v -1.249440 1.317344 -1.000000
v -1.249440 1.464410 -1.000000
v -1.249439 0.979404 -0.183891
v -1.249439 0.823436 -0.186137
v -1.249440 1.465006 -0.685656
v -1.249440 1.316618 -0.816932
v -1.249440 0.825300 -0.615100
v -1.249440 0.980586 -0.503948
v -1.342847 0.864284 -0.612219
v -1.342847 0.951115 -0.517871
v -1.342846 0.862420 -0.186137
v -1.342846 0.949933 -0.183891
v -1.346733 1.287646 -0.915568
v -1.346733 1.488831 -0.915568
v -1.346733 1.287646 -0.811276
v -1.346733 1.488831 -0.811276
v -1.295556 1.287646 -0.890844
v -1.295556 1.488831 -0.890844
v -1.295556 1.287646 -0.836000
v -1.295556 1.488831 -0.836000
v -1.362104 0.753691 -0.393314
v -1.362104 1.045511 -0.393314
v -1.362104 0.753691 -0.242038
v -1.362104 1.045511 -0.242038
v -1.287871 0.753691 -0.357451
v -1.287871 1.045511 -0.357451
v -1.287871 0.753691 -0.277901
v -1.287871 1.045511 -0.277901
v -1.339383 0.820679 -0.506631
v -1.339383 0.978523 -0.506631
v -1.339383 0.820679 -0.424807
v -1.339383 0.978523 -0.424807
v -1.299231 0.820679 -0.487233
v -1.299231 0.978523 -0.487233
v -1.299231 0.820679 -0.444205
v -1.299231 0.978523 -0.444205
v -1.349854 0.780170 -0.576027
v -1.349854 1.138135 -0.576027
v -1.349854 0.780170 -0.530405
v -1.349854 1.138135 -0.530405
v -1.327467 0.780170 -0.565211
v -1.327467 1.138135 -0.565211
v -1.327467 0.780170 -0.541220
v -1.327467 1.138135 -0.541220
v -1.349854 0.669685 -0.633310
v -1.349854 1.462195 -0.633310
v -1.349854 0.669685 -0.587688
v -1.349854 1.462195 -0.587688
v -1.327467 0.669685 -0.622495
v -1.327467 1.462195 -0.622495
v -1.327467 0.669685 -0.598504
v -1.327467 1.462195 -0.598504
v -1.349854 0.786373 -0.687765
v -1.349854 1.578883 -0.687765
v -1.349854 0.786373 -0.642142
v -1.349854 1.578883 -0.642142
v -1.327467 0.786373 -0.676949
v -1.327467 1.578883 -0.676949
v -1.327467 0.786373 -0.652958
v -1.327467 1.578883 -0.652958
v -1.372540 0.948793 -0.795068
v -1.372540 1.528201 -0.795068
v -1.372540 0.948793 -0.660721
v -1.372540 1.528201 -0.660721
v -1.306614 0.948793 -0.763219
v -1.306614 1.528201 -0.763219
v -1.306614 0.948793 -0.692571
v -1.306614 1.528201 -0.692571
v -1.346733 1.326395 -0.938732
v -1.346733 1.450081 -0.938732
v -1.295556 1.326395 -1.000000
v -1.295556 1.382695 -1.000000
v -1.295556 1.326395 -0.963456
v -1.295556 1.382695 -0.963456
v -1.346733 1.450081 -1.000000
vt 0.017715 0.977089
vt 0.018653 0.907872
vt 0.393833 0.912959
vt 0.392894 0.982176
vt 0.019175 0.869441
vt 0.394354 0.874529
vt 0.005274 0.642000
vt 0.101438 0.636002
vt 0.138556 0.677048
vt 0.007961 0.687691
vt 0.040389 0.198588
vt 0.041833 0.010274
vt 0.354776 0.012674
vt 0.353331 0.200988
vt 0.418378 0.152357
vt 0.438805 0.002724
vt 0.465269 0.055504
vt 0.453790 0.127456
vt 0.366801 0.349031
vt 0.179719 0.379959
vt 0.441918 0.607224
vt 0.427748 0.583887
vt 0.467357 0.581962
vt 0.474216 0.601671
vt 0.461333 0.651098
vt 0.481019 0.630298
vt 0.163459 0.719893
vt 0.283978 0.528227
vt 0.405300 0.533112
vt 0.422388 0.322822
vt 0.421306 0.275140
vt 0.012736 0.737293
vt 0.423999 0.529986
vt 0.406336 0.482852
vt 0.419227 0.479525
vt 0.260656 0.483297
vt 0.374305 0.391250
vt 0.196632 0.423139
vt 0.011066 0.554619
vt 0.077273 0.559034
vt 0.220452 0.439454
vt 0.405952 0.445434
vt 0.094850 0.591488
vt 0.011066 0.596621
vt 0.542764 0.652889
vt 0.521081 0.634294
vt 0.965805 0.980696
vt 0.590642 0.974515
vt 0.591782 0.905302
vt 0.966945 0.911482
vt 0.592415 0.866873
vt 0.967578 0.873054
vt 0.988302 0.646133
vt 0.984245 0.691722
vt 0.854028 0.677162
vt 0.892362 0.637249
vt 0.960674 0.209518
vt 0.650886 0.197217
vt 0.658288 0.010802
vt 0.968076 0.023102
vt 0.571777 0.145881
vt 0.536752 0.122472
vt 0.523831 0.054379
vt 0.549569 0.003713
vt 0.814293 0.382461
vt 0.630615 0.343083
vt 0.561098 0.606640
vt 0.526687 0.602399
vt 0.533841 0.580084
vt 0.575328 0.581498
vt 0.593687 0.524753
vt 0.713140 0.524041
vt 0.827850 0.719240
vt 0.572184 0.267979
vt 0.572408 0.315897
vt 0.977982 0.741158
vt 0.579089 0.522203
vt 0.578569 0.468318
vt 0.594161 0.474485
vt 0.737801 0.479832
vt 0.795531 0.424397
vt 0.621209 0.384509
vt 0.995170 0.544887
vt 0.929447 0.546152
vt 0.779304 0.437217
vt 0.595669 0.437095
vt 0.910532 0.577442
vt 0.993201 0.586451
vt 0.489607 0.912601
vt 0.469797 0.912637
vt 0.469669 0.842518
vt 0.489478 0.842481
vt 0.508722 0.912565
vt 0.508593 0.842446
vt 0.528531 0.912529
vt 0.528402 0.842410
vt 0.457852 0.945987
vt 0.440664 0.945987
vt 0.440664 0.885146
vt 0.457852 0.885146
vt 0.424079 0.945987
vt 0.424079 0.885146
vt 0.406890 0.945987
vt 0.406890 0.885146
vt 0.420376 0.994304
vt 0.406890 0.994304
vt 0.406890 0.946570
vt 0.420376 0.946570
vt 0.433388 0.994304
vt 0.433388 0.946570
vt 0.446874 0.994304
vt 0.446874 0.946570
vt 0.590005 0.121643
vt 0.582486 0.121643
vt 0.582486 0.013389
vt 0.590005 0.013389
vt 0.597260 0.121643
vt 0.597260 0.013389
vt 0.604779 0.121643
vt 0.604779 0.013389
vt 0.437286 0.884563
vt 0.429767 0.884563
vt 0.429767 0.644898
vt 0.437286 0.644898
vt 0.444541 0.884563
vt 0.444541 0.644898
vt 0.452060 0.884563
vt 0.452060 0.644898
vt 0.599907 0.380776
vt 0.592388 0.380776
vt 0.592388 0.141111
vt 0.599907 0.141111
vt 0.607162 0.380776
vt 0.607162 0.141111
vt 0.614681 0.380776
vt 0.614681 0.141111
vt 0.487464 0.836567
vt 0.465323 0.836567
vt 0.465323 0.661345
vt 0.487464 0.661345
vt 0.508829 0.836567
vt 0.508829 0.661345
vt 0.530971 0.836567
vt 0.530971 0.661345
vt 0.922093 0.624395
vt 0.956019 0.610176
vt 0.978917 0.613579
vt 0.973651 0.638526
vt 0.956917 0.595045
vt 0.980860 0.598038
vt 0.919935 0.596542
vt 0.502307 0.986957
vt 0.502307 0.921354
vt 0.520841 0.921354
vt 0.520841 0.986957
vt 0.484424 0.986957
vt 0.484424 0.921354
vt 0.465890 0.986957
vt 0.465890 0.921354
vt 0.532631 0.980776
vt 0.532631 0.919934
vt 0.549819 0.919934
vt 0.549819 0.980776
vt 0.566404 0.919934
vt 0.566404 0.980776
vt 0.583593 0.919934
vt 0.583592 0.980776
vt 0.399236 0.096194
vt 0.399236 0.048460
vt 0.412721 0.048460
vt 0.412721 0.096194
vt 0.386224 0.096194
vt 0.386224 0.048460
vt 0.372738 0.096194
vt 0.372738 0.048460
vt 0.398156 0.385586
vt 0.398156 0.277333
vt 0.405675 0.277333
vt 0.405675 0.385586
vt 0.390900 0.385586
vt 0.390900 0.277333
vt 0.383381 0.385586
vt 0.383381 0.277333
vt 0.421665 0.884563
vt 0.421665 0.644898
vt 0.429184 0.644898
vt 0.429184 0.884563
vt 0.414410 0.884563
vt 0.414410 0.644898
vt 0.406890 0.884563
vt 0.406891 0.644898
vt 0.567429 0.898542
vt 0.567429 0.658877
vt 0.574948 0.658877
vt 0.574949 0.898542
vt 0.560174 0.898542
vt 0.560174 0.658877
vt 0.552655 0.898542
vt 0.552655 0.658877
vt 0.394568 0.234683
vt 0.394569 0.109884
vt 0.410339 0.109884
vt 0.410338 0.234683
vt 0.379351 0.234683
vt 0.379352 0.109884
vt 0.363581 0.234683
vt 0.363582 0.109884
vt 0.032802 0.606214
vt 0.070711 0.601959
vt 0.071663 0.620128
vt 0.055144 0.619992
vt 0.071312 0.631298
vt 0.054103 0.630758
vt 0.028198 0.625610
vn 1.000000 0.000000 0.000000
vn 0.959300 -0.282500 0.000000
vn 0.796300 -0.243000 0.554000
vn 0.798000 0.371400 0.474500
vn 0.854200 -0.230900 0.465900
vn 0.780400 0.625300 -0.002300
vn 0.909600 0.338200 -0.241200
vn 0.718300 -0.560700 0.411900
vn 0.806800 -0.590800 -0.001100
vn 0.964000 0.265700 0.000000
vn 0.858800 0.512300 0.000000
vn 0.930600 0.332100 0.153600
vn 0.866800 0.219500 0.447600
vn 0.867500 0.357200 0.346300
vn 0.813300 0.316600 0.488200
vn 0.674400 0.264400 0.689400
vn 0.922800 0.331200 -0.196600
vn 0.813900 -0.220900 0.537400
vn 0.851900 -0.210300 0.479700
vn 0.684000 0.604800 0.407800
vn 0.918700 -0.329200 0.218000
vn 0.718400 -0.560900 0.411400
vn 0.655100 -0.261600 0.708800
vn 0.806100 -0.591700 -0.001100
vn 0.647200 -0.467800 0.601900
vn 0.666600 0.450700 0.593700
vn 0.918700 -0.327800 0.220300
vn 0.733500 0.529400 -0.426300
vn 0.778900 0.627100 -0.002300
vn 0.698600 0.600100 -0.389600
vn 0.798000 0.371400 -0.474500
vn 0.684000 0.604800 -0.407800
vn 0.796300 -0.243000 -0.554000
vn 0.854200 -0.230900 -0.465900
vn 0.780400 0.625300 0.002300
vn 0.806800 -0.590800 0.001100
vn 0.718300 -0.560700 -0.411900
vn 0.909600 0.338200 0.241200
vn 0.866800 0.219500 -0.447600
vn 0.930600 0.332100 -0.153600
vn 0.813300 0.316600 -0.488200
vn 0.867500 0.357200 -0.346300
vn 0.922800 0.331200 0.196600
vn 0.674400 0.264400 -0.689400
vn 0.851900 -0.210300 -0.479700
vn 0.813900 -0.220900 -0.537400
vn 0.655100 -0.261600 -0.708800
vn 0.718400 -0.560900 -0.411400
vn 0.918700 -0.329200 -0.218000
vn 0.806100 -0.591700 0.001100
vn 0.666600 0.450700 -0.593700
vn 0.647200 -0.467800 -0.601900
vn 0.918700 -0.327800 -0.220300
vn 0.733500 0.529400 0.426300
vn 0.778900 0.627100 0.002300
vn 0.698600 0.600100 0.389600
vn 0.847000 0.000000 0.531500
vn 0.435000 0.000000 0.900400
vn 0.847000 0.000000 -0.531500
vn 0.435000 0.000000 -0.900400
vn 0.798600 0.467500 -0.379000
vn 0.857300 0.234000 -0.458400
vn 0.947700 0.319100 0.000000
vn 0.796400 0.604800 0.000000
vn 0.798600 0.467500 0.379000
vn 0.857300 0.234000 0.458400
usemtl Material.001
s 1
f 1/1/1 5/2/2 10/3/3 6/4/4
f 5/2/2 4/5/2 9/6/5 10/3/3
f 18/7/6 17/8/7 16/9/8 19/10/9
f 3/11/10 2/12/11 7/13/12 8/14/13
f 8/15/13 7/16/12 15/17/14 14/18/15
f 3/11/10 8/14/13 23/19/16 26/20/17
f 10/21/3 9/22/5 13/23/18 12/24/19
f 6/25/4 10/21/3 12/24/19 11/26/20
f 9/6/5 24/27/21 27/28/22 22/29/23
f 9/22/5 22/30/23 23/31/16 8/15/13 14/18/15 13/23/18
f 4/5/2 21/32/24 24/27/21 9/6/5
f 23/33/16 22/29/23 31/34/25 30/35/26
f 22/29/23 27/28/22 29/36/27 31/34/25
f 26/20/17 23/19/16 30/37/26 28/38/28
f 20/39/29 3/11/10 26/20/17 25/40/30
f 29/36/27 16/9/8 17/8/7 28/41/28
f 31/34/25 29/36/27 28/41/28 30/42/26
f 25/40/30 26/20/17 28/38/28 17/43/7
f 27/28/22 24/27/21 16/9/8 29/36/27
f 24/27/21 21/32/24 19/10/9 16/9/8
f 20/39/29 25/40/30 17/43/7 18/44/6
f 100/45/31 6/25/4 11/26/20 105/46/32
f 95/47/1 100/48/31 104/49/33 99/50/2
f 99/50/2 104/49/33 103/51/34 98/52/2
f 112/53/35 113/54/36 110/55/37 111/56/38
f 97/57/10 102/58/39 101/59/40 96/60/11
f 102/61/39 108/62/41 109/63/42 101/64/40
f 97/57/10 120/65/43 117/66/44 102/58/39
f 104/67/33 106/68/45 107/69/46 103/70/34
f 100/45/31 105/46/32 106/68/45 104/67/33
f 101/64/40 109/63/42 15/17/14 7/16/12
f 103/51/34 116/71/47 121/72/48 118/73/49
f 103/70/34 107/69/46 108/62/41 102/61/39 117/74/44 116/75/47
f 98/52/2 103/51/34 118/73/49 115/76/50
f 117/77/44 124/78/51 125/79/52 116/71/47
f 116/71/47 125/79/52 123/80/53 121/72/48
f 120/65/43 122/81/54 124/82/51 117/66/44
f 114/83/55 119/84/56 120/65/43 97/57/10
f 123/80/53 122/85/54 111/56/38 110/55/37
f 125/79/52 124/86/51 122/85/54 123/80/53
f 119/84/56 111/87/38 122/81/54 120/65/43
f 121/72/48 123/80/53 110/55/37 118/73/49
f 118/73/49 110/55/37 113/54/36 115/76/50
f 114/83/55 112/88/35 111/87/38 119/84/56
f 106/68/45 12/24/19 13/23/18 107/69/46
f 108/62/41 14/18/15 15/17/14 109/63/42
f 107/69/46 13/23/18 14/18/15 108/62/41
f 105/46/32 11/26/20 12/24/19 106/68/45
s 2
f 45/89/57 41/90/58 40/91/58 44/92/57
f 47/93/59 45/89/57 44/92/57 46/94/59
f 43/95/60 47/93/59 46/94/59 42/96/60
s 3
f 35/97/60 39/98/59 38/99/59 34/100/60
f 39/98/59 37/101/57 36/102/57 38/99/59
f 37/101/57 33/103/58 32/104/58 36/102/57
s 4
f 53/105/57 49/106/58 48/107/58 52/108/57
f 55/109/59 53/105/57 52/108/57 54/110/59
f 51/111/60 55/109/59 54/110/59 50/112/60
s 5
f 61/113/57 57/114/58 56/115/58 60/116/57
f 63/117/59 61/113/57 60/116/57 62/118/59
f 59/119/60 63/117/59 62/118/59 58/120/60
s 6
f 69/121/57 65/122/58 64/123/58 68/124/57
f 71/125/59 69/121/57 68/124/57 70/126/59
f 67/127/60 71/125/59 70/126/59 66/128/60
s 7
f 77/129/57 73/130/58 72/131/58 76/132/57
f 79/133/59 77/129/57 76/132/57 78/134/59
f 75/135/60 79/133/59 78/134/59 74/136/60
s 8
f 85/137/57 81/138/58 80/139/58 84/140/57
f 87/141/59 85/137/57 84/140/57 86/142/59
f 83/143/60 87/141/59 86/142/59 82/144/60
s 9
f 89/145/61 93/146/62 92/147/59 88/148/60
f 93/146/62 91/149/63 90/150/1 92/147/59
f 94/151/64 91/149/63 93/146/62 89/145/61
s 10
f 139/152/59 138/153/59 134/154/60 135/155/60
f 141/156/57 140/157/57 138/153/59 139/152/59
f 137/158/58 136/159/58 140/157/57 141/156/57
s 11
f 129/160/58 128/161/58 132/162/57 133/163/57
f 133/163/57 132/162/57 130/164/59 131/165/59
f 131/165/59 130/164/59 126/166/60 127/167/60
s 12
f 147/168/59 146/169/59 142/170/60 143/171/60
f 149/172/57 148/173/57 146/169/59 147/168/59
f 145/174/58 144/175/58 148/173/57 149/172/57
s 13
f 155/176/59 154/177/59 150/178/60 151/179/60
f 157/180/57 156/181/57 154/177/59 155/176/59
f 153/182/58 152/183/58 156/181/57 157/180/57
s 14
f 163/184/59 162/185/59 158/186/60 159/187/60
f 165/188/57 164/189/57 162/185/59 163/184/59
f 161/190/58 160/191/58 164/189/57 165/188/57
s 15
f 171/192/59 170/193/59 166/194/60 167/195/60
f 173/196/57 172/197/57 170/193/59 171/192/59
f 169/198/58 168/199/58 172/197/57 173/196/57
s 16
f 179/200/59 178/201/59 174/202/60 175/203/60
f 181/204/57 180/205/57 178/201/59 179/200/59
f 177/206/58 176/207/58 180/205/57 181/204/57
s 17
f 183/208/65 182/209/58 186/210/57 187/211/66
f 187/211/66 186/210/57 184/212/1 185/213/63
f 188/214/64 183/208/65 187/211/66 185/213/63
