# Blender v2.74 (sub 0) OBJ File: 'Tile_Floor.blend'
# www.blender.org
mtllib Tile_Floor.mtl
o Lowpoly_Plane.002
v 0.773193 0.000000 1.000000
v 1.000000 0.000000 1.000000
v 0.921417 0.000000 1.000000
v 0.773748 -0.071212 1.000000
v 0.920862 -0.071212 1.000000
v 0.848030 0.020199 1.000000
v 0.885424 0.010180 1.000000
v 0.912798 -0.017195 1.000000
v 0.922818 -0.054589 1.000000
v 0.912798 -0.091983 1.000000
v 0.783262 -0.091983 1.000000
v 0.773242 -0.054589 1.000000
v 0.783262 -0.017195 1.000000
v 0.810636 0.010179 1.000000
v -0.773193 0.000000 1.000000
v -1.000000 0.000000 1.000000
v -0.921417 0.000000 1.000000
v 0.000000 0.000000 1.000000
v 0.000000 0.000000 -1.000000
v -0.773748 -0.071212 1.000000
v -0.920862 -0.071212 1.000000
v -0.848030 0.020199 1.000000
v -0.885424 0.010180 1.000000
v -0.912798 -0.017195 1.000000
v -0.922818 -0.054589 1.000000
v -0.912798 -0.091983 1.000000
v -0.783262 -0.091983 1.000000
v -0.773242 -0.054589 1.000000
v -0.783262 -0.017195 1.000000
v -0.810636 0.010179 1.000000
v 0.773193 0.000000 -1.000000
v 1.000000 0.000000 -1.000000
v 0.921417 0.000000 0.000000
v 0.921417 0.000000 -1.000000
v -1.000000 0.000000 0.000000
v 1.000000 0.000000 0.000000
v 0.773193 0.000000 0.000000
v 0.773748 -0.071212 -1.000000
v 0.773748 -0.071212 0.000000
v 0.920862 -0.071212 0.000000
v 0.920862 -0.071212 -1.000000
v 0.848030 0.020199 0.000000
v 0.848030 0.020199 -1.000000
v 0.885424 0.010180 0.000000
v 0.885424 0.010180 -1.000000
v 0.912798 -0.017195 0.000000
v 0.912798 -0.017195 -1.000000
v 0.922818 -0.054589 0.000000
v 0.922818 -0.054589 -1.000000
v 0.912798 -0.091983 0.000000
v 0.912798 -0.091983 -1.000000
v 0.783262 -0.091983 0.000000
v 0.783262 -0.091983 -1.000000
v 0.773242 -0.054589 0.000000
v 0.773242 -0.054589 -1.000000
v 0.783262 -0.017195 0.000000
v 0.783262 -0.017195 -1.000000
v 0.810636 0.010179 0.000000
v 0.810636 0.010179 -1.000000
v -0.773193 0.000000 -1.000000
v -1.000000 0.000000 -1.000000
v -0.921417 0.000000 0.000000
v -0.921417 0.000000 -1.000000
v 0.000000 0.000000 -1.000000
v 0.000000 0.000000 1.000000
v 1.000000 0.000000 0.000000
v -1.000000 0.000000 0.000000
v 0.000000 0.000000 0.000000
v -0.773193 0.000000 0.000000
v -0.773748 -0.071212 -1.000000
v -0.773748 -0.071212 0.000000
v -0.920862 -0.071212 0.000000
v -0.920862 -0.071212 -1.000000
v -0.848030 0.020199 0.000000
v -0.848030 0.020199 -1.000000
v -0.885424 0.010180 0.000000
v -0.885424 0.010180 -1.000000
v -0.912798 -0.017195 0.000000
v -0.912798 -0.017195 -1.000000
v -0.922818 -0.054589 0.000000
v -0.922818 -0.054589 -1.000000
v -0.912798 -0.091983 0.000000
v -0.912798 -0.091983 -1.000000
v -0.783262 -0.091983 0.000000
v -0.783262 -0.091983 -1.000000
v -0.773242 -0.054589 0.000000
v -0.773242 -0.054589 -1.000000
v -0.783262 -0.017195 0.000000
v -0.783262 -0.017195 -1.000000
v -0.810636 0.010179 0.000000
v -0.810636 0.010179 -1.000000
vt 0.303580 1.000000
vt 0.000000 1.000000
vt 0.000000 0.500000
vt 0.303580 0.500000
vt 0.888158 0.500000
vt 0.888158 0.000000
vt 0.916118 0.000000
vt 0.916118 0.500000
vt 0.607159 0.500000
vt 0.607159 1.000000
vt 0.944079 0.500000
vt 0.972039 0.500000
vt 0.972040 1.000000
vt 0.944079 1.000000
vt 0.303580 0.000000
vt 0.000000 0.000000
vt 0.916118 1.000000
vt 0.888158 1.000000
vt 0.607159 0.000000
vt 0.944079 0.000000
vt 0.972039 0.000000
vt 0.798575 1.000000
vt 0.767721 1.000000
vt 0.767721 0.500000
vt 0.798575 0.500000
vt 1.000000 0.500000
vt 1.000000 1.000000
vt 0.798575 0.000000
vt 0.767721 0.000000
vt 1.000000 0.000000
vt 0.844112 0.500000
vt 0.844112 0.000000
vt 0.858794 0.000000
vt 0.858794 0.500000
vt 0.617936 0.000000
vt 0.617936 0.500000
vt 0.632628 0.000000
vt 0.632628 0.500000
vt 0.647300 0.000000
vt 0.647300 0.500000
vt 0.687440 0.500000
vt 0.687440 1.000000
vt 0.672769 1.000000
vt 0.672769 0.500000
vt 0.658076 1.000000
vt 0.658076 0.500000
vt 0.647300 1.000000
vt 0.829430 0.500000
vt 0.829430 0.000000
vt 0.858794 1.000000
vt 0.844112 1.000000
vt 0.617936 1.000000
vt 0.632628 1.000000
vt 0.672769 0.000000
vt 0.687440 0.000000
vt 0.658076 0.000000
vt 0.829430 1.000000
vt 0.873476 0.500000
vt 0.873476 0.000000
vt 0.698217 0.500000
vt 0.698217 1.000000
vt 0.712909 0.500000
vt 0.712909 1.000000
vt 0.727581 0.500000
vt 0.727581 1.000000
vt 0.742252 0.500000
vt 0.742252 1.000000
vt 0.756945 0.500000
vt 0.756945 1.000000
vt 0.873476 1.000000
vt 0.698217 0.000000
vt 0.712909 0.000000
vt 0.727581 0.000000
vt 0.742252 0.000000
vt 0.756945 0.000000
vn 0.000000 1.000000 0.000000
vn 0.704300 0.709800 0.000000
vn 1.000000 0.007800 0.000000
vn -0.704300 0.709800 0.000000
vn -1.000000 0.007800 0.000000
vn 0.500000 0.866000 0.000000
vn 0.866000 0.500000 0.000000
vn 1.000000 0.000000 0.000000
vn 0.965900 -0.258800 0.000000
vn -0.965900 -0.258800 0.000000
vn -1.000000 0.000000 0.000000
vn -0.866000 0.500000 0.000000
vn -0.500000 0.866000 0.000000
usemtl Material.006
s 1
f 18/1/1 1/2/2 37/3/2 68/4/1
f 37/5/2 1/6/2 4/7/3 39/8/3
f 18/1/1 68/4/1 69/9/4 15/10/4
f 69/11/4 71/12/5 20/13/5 15/14/4
f 64/15/1 68/4/1 37/3/2 31/16/2
f 37/5/2 39/8/3 38/17/3 31/18/2
f 64/15/1 60/19/4 69/9/4 68/4/1
f 69/11/4 60/20/4 70/21/5 71/12/5
s 2
f 3/22/4 2/23/1 36/24/1 33/25/4
f 40/26/5 5/27/5 3/13/4 33/12/4
f 34/28/4 33/25/4 36/24/1 32/29/1
f 40/26/5 33/12/4 34/21/4 41/30/5
s 3
f 42/31/1 6/32/1 7/33/6 44/34/6
f 44/9/6 7/19/6 8/35/7 46/36/7
f 46/36/7 8/35/7 9/37/8 48/38/8
f 48/38/8 9/37/8 10/39/9 50/40/9
f 52/41/10 11/42/10 12/43/11 54/44/11
f 54/44/11 12/43/11 13/45/12 56/46/12
f 56/46/12 13/45/12 14/47/13 58/40/13
f 58/48/13 14/49/13 6/32/1 42/31/1
f 42/31/1 44/34/6 45/50/6 43/51/1
f 44/9/6 46/36/7 47/52/7 45/10/6
f 46/36/7 48/38/8 49/53/8 47/52/7
f 48/38/8 50/40/9 51/47/9 49/53/8
f 52/41/10 54/44/11 55/54/11 53/55/10
f 54/44/11 56/46/12 57/56/12 55/54/11
f 56/46/12 58/40/13 59/39/13 57/56/12
f 58/48/13 42/31/1 43/51/1 59/57/13
s 4
f 17/49/2 62/48/2 67/25/1 16/28/1
f 72/11/3 62/8/2 17/7/2 21/20/3
f 63/57/2 61/22/1 67/25/1 62/48/2
f 72/11/3 73/14/3 63/17/2 62/8/2
s 5
f 74/58/1 76/34/13 23/33/13 22/59/1
f 76/41/13 78/60/12 24/61/12 23/42/13
f 78/60/12 80/62/11 25/63/11 24/61/12
f 80/62/11 82/64/10 26/65/10 25/63/11
f 84/64/9 86/66/8 28/67/8 27/65/9
f 86/66/8 88/68/7 29/69/7 28/67/8
f 88/68/7 90/24/6 30/23/6 29/69/7
f 90/5/6 74/58/1 22/59/1 30/6/6
f 74/58/1 75/70/1 77/50/13 76/34/13
f 76/41/13 77/55/13 79/71/12 78/60/12
f 78/60/12 79/71/12 81/72/11 80/62/11
f 80/62/11 81/72/11 83/73/10 82/64/10
f 84/64/9 85/73/9 87/74/8 86/66/8
f 86/66/8 87/74/8 89/75/7 88/68/7
f 88/68/7 89/75/7 91/29/6 90/24/6
f 90/5/6 91/18/6 75/70/1 74/58/1
l 68 19
l 68 35
l 68 66
l 68 65
