# Blender v2.74 (sub 0) OBJ File: 'corners.blend'
# www.blender.org
mtllib tile_floor_small.mtl
o Tile_Floor_small_lowpoly_Cube.011
v -0.250000 0.000000 -0.921417
v -0.250000 0.000000 -0.773193
v -0.178044 0.000000 -0.921417
v -0.178044 0.000000 -0.773193
v -0.250000 0.000000 -1.000000
v -0.203133 0.024836 -0.886010
v -0.250000 0.024836 -0.886010
v -0.250000 0.024836 -0.808601
v -0.203133 0.024836 -0.808601
v -0.250000 -0.071212 -0.921417
v -0.250000 -0.071212 -0.773193
v 0.250000 0.000000 -0.921417
v 0.250000 0.000000 -0.773193
v 0.178044 0.000000 -0.921417
v 0.178044 0.000000 -0.773193
v 0.000000 0.000000 -1.000000
v 0.250000 0.000000 -1.000000
v 0.203133 0.024836 -0.886010
v 0.250000 0.024836 -0.886010
v 0.250000 0.024836 -0.808601
v 0.203133 0.024836 -0.808601
v 0.250000 -0.071212 -0.921417
v 0.250000 -0.071212 -0.773193
v -0.250000 0.000000 0.921417
v -0.250000 0.000000 0.773193
v -0.178044 0.000000 0.921417
v -0.178044 0.000000 0.773193
v -0.250000 0.000000 1.000000
v -0.250000 0.000000 0.000000
v -0.203133 0.024836 0.886010
v -0.250000 0.024836 0.886010
v -0.250000 0.024836 0.808601
v -0.203133 0.024836 0.808601
v -0.250000 -0.071212 0.921417
v -0.250000 -0.071212 0.773193
v 0.250000 0.000000 0.921417
v 0.250000 0.000000 0.773193
v 0.178044 0.000000 0.921417
v 0.178044 0.000000 0.773193
v 0.000000 0.000000 1.000000
v 0.250000 0.000000 1.000000
v 0.250000 0.000000 0.000000
v 0.000000 0.000000 0.000000
v 0.203133 0.024836 0.886010
v 0.250000 0.024836 0.886010
v 0.250000 0.024836 0.808601
v 0.203133 0.024836 0.808601
v 0.250000 -0.071212 0.921417
v 0.250000 -0.071212 0.773193
vt 0.514711 0.683468
vt 0.514711 0.814686
vt 0.492501 0.783341
vt 0.492501 0.714814
vt 0.451010 0.814686
vt 0.672327 0.884253
vt 0.451010 0.884253
vt 0.451010 0.714814
vt 0.451010 0.783341
vt 0.451010 0.683468
vt 0.451010 -0.001013
vt 0.672327 -0.001013
vt 0.521775 0.962610
vt 0.667344 0.962610
vt 0.632571 0.987001
vt 0.556548 0.987001
vt 0.521775 0.892673
vt 0.667344 0.892673
vt 0.829943 0.683468
vt 0.852153 0.714814
vt 0.852153 0.783341
vt 0.829943 0.814686
vt 0.893644 0.814686
vt 0.893644 0.884253
vt 0.893644 0.714814
vt 0.893644 0.783341
vt 0.893644 -0.001013
vt 0.893644 0.683468
vt 0.179122 0.962662
vt 0.144905 0.986663
vt 0.070096 0.986664
vt 0.035878 0.962662
vt 0.035878 0.893843
vt 0.179122 0.893843
vt 0.066934 0.200274
vt 0.044682 0.168870
vt 0.044682 0.100213
vt 0.066934 0.068809
vt 0.003114 0.068809
vt 0.003114 -0.000888
vt 0.224847 -0.000888
vt 0.003114 0.168870
vt 0.003114 0.100213
vt 0.224847 0.886044
vt 0.003114 0.886044
vt 0.003114 0.200274
vt 0.194382 0.916541
vt 0.229501 0.891908
vt 0.306278 0.891908
vt 0.341396 0.916541
vt 0.341396 0.987172
vt 0.194382 0.987172
vt 0.382759 0.200274
vt 0.382759 0.068809
vt 0.405011 0.100213
vt 0.405011 0.168870
vt 0.446580 0.068809
vt 0.446580 -0.000888
vt 0.446580 0.168870
vt 0.446580 0.100213
vt 0.446580 0.200274
vt 0.446580 0.886044
vt 0.355968 0.964197
vt 0.503677 0.964197
vt 0.468393 0.988947
vt 0.391253 0.988947
vt 0.355968 0.893233
vt 0.503677 0.893233
vn 0.703500 0.710700 0.000000
vn 0.000000 1.000000 0.000000
vn 0.000000 0.818700 0.574200
vn -1.000000 0.000000 0.000000
vn 0.000000 0.818700 -0.574200
vn -0.703500 0.710700 0.000000
vn 1.000000 0.000000 0.000000
usemtl Material.020
s off
f 4/1/1 3/2/1 6/3/1 9/4/1
f 1/5/2 3/2/2 16/6/2 5/7/2
f 8/8/2 9/4/2 6/3/2 7/9/2
f 4/1/2 2/10/2 29/11/2 43/12/2
f 3/2/2 4/1/2 43/12/2 16/6/2
f 2/10/3 4/1/3 9/4/3 8/8/3
f 1/13/4 2/14/4 8/15/4 7/16/4
f 3/2/5 1/5/5 7/9/5 6/3/5
f 2/14/4 1/13/4 10/17/4 11/18/4
f 15/19/6 21/20/6 18/21/6 14/22/6
f 12/23/2 17/24/2 16/6/2 14/22/2
f 20/25/2 19/26/2 18/21/2 21/20/2
f 15/19/2 43/12/2 42/27/2 13/28/2
f 14/22/2 16/6/2 43/12/2 15/19/2
f 13/28/3 20/25/3 21/20/3 15/19/3
f 12/29/7 19/30/7 20/31/7 13/32/7
f 14/22/5 18/21/5 19/26/5 12/23/5
f 13/32/7 23/33/7 22/34/7 12/29/7
f 27/35/1 33/36/1 30/37/1 26/38/1
f 24/39/2 28/40/2 40/41/2 26/38/2
f 32/42/2 31/43/2 30/37/2 33/36/2
f 27/35/2 43/44/2 29/45/2 25/46/2
f 26/38/2 40/41/2 43/44/2 27/35/2
f 25/46/5 32/42/5 33/36/5 27/35/5
f 24/47/4 31/48/4 32/49/4 25/50/4
f 26/38/3 30/37/3 31/43/3 24/39/3
f 25/50/4 35/51/4 34/52/4 24/47/4
f 39/53/6 38/54/6 44/55/6 47/56/6
f 36/57/2 38/54/2 40/41/2 41/58/2
f 46/59/2 47/56/2 44/55/2 45/60/2
f 39/53/2 37/61/2 42/62/2 43/44/2
f 38/54/2 39/53/2 43/44/2 40/41/2
f 37/61/5 39/53/5 47/56/5 46/59/5
f 36/63/7 37/64/7 46/65/7 45/66/7
f 38/54/3 36/57/3 45/60/3 44/55/3
f 37/64/7 36/63/7 48/67/7 49/68/7
